<svg xmlns="http://www.w3.org/2000/svg" xmlns:xlink="http://www.w3.org/1999/xlink" viewBox="0 0 198.902 187.521"><defs><style>.a{fill:#f8f8f8;stroke:#101010;}.b{fill:#b0d3f0;}.c,.j{fill:#ff4e00;}.d{fill:#fff;}.e{fill:#ffa800;}.f{fill:#7f8c8d;}.g{fill:#fe420a;}.h{fill:#4b4b4b;}.i{fill:#222;}.j,.k{fill-rule:evenodd;}.k,.m{fill:none;}.k{stroke:#ff4e00;stroke-linecap:round;stroke-linejoin:round;stroke-width:2px;}.l{stroke:none;}.n{filter:url(#a);}</style><filter id="a" x="0" y="0" width="198.902" height="187.521" filterUnits="userSpaceOnUse"><feOffset dy="10" input="SourceAlpha"/><feGaussianBlur stdDeviation="3" result="b"/><feFlood flood-opacity="0.161"/><feComposite operator="in" in2="b"/><feComposite in="SourceGraphic"/></filter></defs><g transform="translate(-1181 -2294.394)"><g class="n" transform="matrix(1, 0, 0, 1, 1181, 2294.39)"><g class="a" transform="translate(9)"><rect class="l" width="180.903" height="168.521" rx="50"/><rect class="m" x="0.5" y="0.5" width="179.903" height="167.521" rx="49.5"/></g></g><g transform="translate(20903.654 16005.652)"><g transform="translate(-19675 -13678.691)"><g transform="translate(0 0)"><g transform="translate(1.732 1.729)"><circle class="b" cx="50.142" cy="50.142" r="50.142" transform="translate(0 0)"/><path class="c" d="M100.284,50.142a50.134,50.134,0,0,1-50.142,50.142c-.865,0-1.729-.017-2.576-.069h-.035a50.141,50.141,0,0,1,0-100.146h.035C48.413.017,49.278,0,50.142,0a50.134,50.134,0,0,1,50.142,50.142Z" transform="translate(0 0)"/><path class="d" d="M95.1,50.113a50.14,50.14,0,0,1-47.531,50.073h-.035A50.141,50.141,0,0,1,47.531.04h.035A50.14,50.14,0,0,1,95.1,50.113Z" transform="translate(0 0.029)"/><path class="b" d="M56.039,20.374V41.123a3.468,3.468,0,0,1-3.458,3.458H21.458A3.468,3.468,0,0,1,18,41.123V13.458A3.468,3.468,0,0,1,21.458,10h9.959a3.458,3.458,0,0,1,3.095,1.919L36.068,15a3.458,3.458,0,0,0,3.095,1.919H52.581A3.468,3.468,0,0,1,56.039,20.374Z" transform="translate(13.123 7.29)"/><path class="e" d="M100.284,57.019v1.729A5.18,5.18,0,0,1,95.1,63.936H5.187A5.18,5.18,0,0,1,0,58.748V57.019L6.4,46.956,12.1,38H88.181l5.706,8.956Z" transform="translate(0 27.703)"/><path class="d" d="M95.1,57.019v1.729a5.18,5.18,0,0,1-5.187,5.187H5.187A5.18,5.18,0,0,1,0,58.748V57.019L6.4,46.956,12.1,38H82.994L88.7,46.956Z" transform="translate(0 27.703)"/><path class="b" d="M100.284,49v1.729A5.18,5.18,0,0,1,95.1,55.916H5.187A5.18,5.18,0,0,1,0,50.729V49Z" transform="translate(0 35.723)"/><path class="b" d="M46.207,52.645H22l2.594-6.467A3.452,3.452,0,0,1,27.792,44H40.414a3.452,3.452,0,0,1,3.2,2.179Z" transform="translate(16.039 32.078)"/><path class="e" d="M83.078,7.458V62.787H7V7.458A3.468,3.468,0,0,1,10.458,4H79.62A3.468,3.468,0,0,1,83.078,7.458Z" transform="translate(5.104 2.916)"/><path class="d" d="M77.891,7.458V62.787H7V7.458A3.357,3.357,0,0,1,10.217,4H74.675A3.357,3.357,0,0,1,77.891,7.458Z" transform="translate(5.103 2.916)"/><path class="f" d="M100.284,49v1.729A5.18,5.18,0,0,1,95.1,55.916H5.187A5.18,5.18,0,0,1,0,50.729V49Z" transform="translate(0 35.723)"/><path class="e" d="M100.284,49v1.729A5.18,5.18,0,0,1,95.1,55.916H5.187A5.18,5.18,0,0,1,0,50.729V49Z" transform="translate(0 35.723)"/><path class="g" d="M95.1,49v1.729a5.18,5.18,0,0,1-5.187,5.187H5.187A5.18,5.18,0,0,1,0,50.729V49Z" transform="translate(0 35.723)"/><path class="h" d="M46.207,52.645H22l2.594-6.467A3.452,3.452,0,0,1,27.792,44H40.414a3.452,3.452,0,0,1,3.2,2.179Z" transform="translate(16.039 32.078)"/></g><g transform="translate(1.733 1.729)"><path class="d" d="M12.1,10.11v7.262c-.173.294-.346.588-.519.9-.173.294-.346.605-.5.916l-.622,1.193c-.156.311-.311.622-.45.934-.207.415-.38.83-.571,1.245-.138.329-.277.64-.415.951-.173.432-.346.847-.5,1.279-.121.329-.259.657-.38.968-.156.45-.294.882-.432,1.314-.121.329-.225.657-.329,1-.138.432-.259.9-.38,1.349-.1.329-.19.657-.277.986-.121.467-.225.934-.329,1.4-.069.329-.156.674-.225,1-.086.484-.173.951-.242,1.435a9.326,9.326,0,0,0-.173,1c-.086.5-.138,1-.207,1.5-.035.329-.086.64-.1.968-.069.553-.1,1.107-.138,1.66-.017.294-.035.571-.052.847-.052.847-.069,1.694-.069,2.542s.017,1.694.069,2.542c.017.277.035.553.052.847.035.553.069,1.107.138,1.66.017.329.069.64.1.968.069.5.121,1,.207,1.5.035.329.1.657.173,1,.069.467.156.951.242,1.435.069.329.156.674.225,1,.1.467.207.934.329,1.4.086.329.173.657.277.986.121.45.242.916.38,1.349.1.346.207.674.329,1,.138.432.277.865.432,1.3.121.329.259.657.38.986.156.432.329.847.5,1.28.138.311.277.622.415.951.074.161,1.246-3.739,2.663-4.651a5.347,5.347,0,0,1,5.187,0L5.187,77.352v1.729a5.18,5.18,0,0,0,5.187,5.187H5.187A5.18,5.18,0,0,1,0,79.081V77.352L6.4,67.289c-.173-.311-.346-.622-.5-.934l-.622-1.193c-.156-.311-.311-.622-.45-.934-.207-.415-.38-.83-.571-1.245-.138-.329-.277-.64-.415-.951-.173-.432-.346-.847-.5-1.28-.121-.329-.259-.657-.38-.986-.156-.432-.294-.865-.432-1.3-.121-.328-.225-.657-.328-1-.138-.432-.259-.9-.38-1.349-.1-.329-.19-.657-.277-.986-.121-.467-.225-.934-.329-1.4-.069-.329-.156-.674-.225-1C.9,52.247.813,51.763.743,51.3c-.069-.346-.138-.674-.173-1-.086-.5-.138-1-.207-1.5-.035-.329-.086-.64-.1-.968-.069-.553-.1-1.107-.138-1.66C.1,45.867.086,45.59.069,45.313.017,44.466,0,43.619,0,42.772s.017-1.694.069-2.542c.017-.277.035-.553.052-.847.035-.553.069-1.107.138-1.66.017-.328.069-.64.1-.968.069-.5.121-1,.207-1.5a9.326,9.326,0,0,1,.173-1c.069-.484.156-.951.242-1.435.069-.329.156-.674.225-1,.1-.467.207-.934.329-1.4.086-.329.173-.657.277-.986.121-.45.242-.916.38-1.349.1-.346.207-.674.329-1,.138-.432.277-.865.432-1.314.121-.311.259-.64.38-.968.156-.432.329-.847.5-1.279.138-.311.277-.622.415-.951.19-.415.363-.83.571-1.245.138-.311.294-.622.45-.934L5.9,19.187c.156-.311.329-.622.5-.916.225-.4.45-.778.674-1.158.173-.311.363-.605.553-.916.225-.363.467-.743.709-1.107.19-.294.4-.588.605-.882.242-.363.5-.709.761-1.055.207-.294.432-.588.64-.865.259-.346.536-.674.8-1.02.242-.277.467-.571.709-.847Z" transform="translate(0 7.371)"/><path class="d" d="M36.494,60.729a51.643,51.643,0,0,0,7,.847c-.865.052-1.746.069-2.628.069a51.22,51.22,0,0,1-9.562-.916,2.694,2.694,0,0,0-.363-.069q-.908-.182-1.815-.415c-.19-.035-.38-.086-.571-.121-.571-.156-1.107-.311-1.66-.467-.225-.069-.467-.121-.692-.19-.519-.156-1.037-.346-1.539-.519-.259-.086-.5-.156-.761-.242-.484-.19-.968-.363-1.435-.553-.277-.121-.553-.207-.813-.329-.45-.19-.9-.38-1.349-.588-.277-.138-.571-.259-.847-.38-.432-.207-.847-.415-1.279-.64-.277-.138-.571-.294-.865-.45-.4-.207-.8-.432-1.193-.657-.294-.173-.605-.346-.882-.519-.38-.225-.761-.45-1.141-.692l-.882-.571c-.173-.121-.346-.225-.5-.329h5.187c.156.1.329.207.5.329l.882.571c.38.242.761.467,1.141.692.277.173.588.346.882.519.4.225.8.45,1.193.657.294.156.588.311.865.45.432.225.847.432,1.279.64.277.121.571.242.847.38.45.207.9.4,1.349.588.259.121.536.207.813.329.467.19.951.363,1.435.553.259.086.5.156.761.242.5.173,1.02.363,1.539.519.225.069.467.121.692.19.553.156,1.089.311,1.66.467.19.035.38.086.571.121q.908.233,1.815.415A2.694,2.694,0,0,1,36.494,60.729Z" transform="translate(9.273 38.639)"/><path class="d" d="M19.487,6.916H14.3c.225-.138.45-.259.674-.38.4-.225.8-.45,1.193-.657.294-.156.588-.311.865-.449.432-.225.847-.432,1.279-.64.277-.121.571-.242.847-.38.45-.207.9-.4,1.349-.588.277-.121.536-.207.813-.329.484-.19.951-.363,1.435-.553.259-.086.519-.156.761-.242.519-.19,1.02-.363,1.539-.519.225-.069.467-.121.692-.19l1.66-.467c.19-.035.38-.086.588-.121.588-.156,1.193-.294,1.8-.415.121-.017.259-.052.4-.069A51,51,0,0,1,39.717,0c.882,0,1.764.017,2.628.086a48.85,48.85,0,0,0-6.968.83c-.138.017-.277.052-.4.069-.605.121-1.21.259-1.8.415-.207.035-.4.086-.588.121l-1.66.467c-.225.069-.467.121-.692.19-.519.156-1.02.329-1.539.519-.242.086-.5.156-.761.242-.484.19-.951.363-1.435.553-.277.121-.536.208-.813.329-.45.19-.9.38-1.349.588-.277.138-.571.259-.847.38-.432.208-.847.415-1.279.64-.277.138-.571.294-.865.449-.4.207-.8.432-1.193.657C19.937,6.657,19.712,6.778,19.487,6.916Z" transform="translate(10.425 0)"/></g><path class="d" d="M7.621,69.613a51.881,51.881,0,0,1,5.9-59.155l2.622,2.255a48.422,48.422,0,0,0-5.51,55.2Z" transform="translate(-0.997 7.624)"/><path d="M2.63,38.985l.308.138a1.3,1.3,0,0,0,.344.071,1.087,1.087,0,0,0,.329.018,2.487,2.487,0,0,0,.342-.058A1.849,1.849,0,0,0,5,38.357a1.777,1.777,0,0,0,.219-.629,1.744,1.744,0,0,0-.769-1.7,1.858,1.858,0,0,0-.632-.232,1.773,1.773,0,0,0-.673,0,1.761,1.761,0,0,0-1.1.746,1.815,1.815,0,0,0-.213,1.344A1.879,1.879,0,0,0,2.63,38.985Z" transform="translate(-0.418 26.071)"/><path class="i" d="M92.641,18.591V12.1a5.193,5.193,0,0,0-5.187-5.187H78.745A51.85,51.85,0,0,0,27,6.916H18.292A5.193,5.193,0,0,0,13.1,12.1v6.491a51.62,51.62,0,0,0-12,36.523L1.243,56.9a1.717,1.717,0,0,0,1.915,1.553,1.753,1.753,0,0,0,1.527-1.884L4.555,54.9A48.1,48.1,0,0,1,13.1,24.284V66.928l-3.819,6c-.542-1.121-1.052-2.258-1.506-3.417a1.764,1.764,0,0,0-2.212-.99A1.707,1.707,0,0,0,4.56,70.775,51.751,51.751,0,0,0,7.139,76.3l-5.867,9.22a1.672,1.672,0,0,0-.081.176c-.024.048-.047.093-.066.144a1.716,1.716,0,0,0-.118.587l0,.021v1.729A6.924,6.924,0,0,0,7.918,95.1H24.212a51.832,51.832,0,0,0,57.322,0H97.828a6.924,6.924,0,0,0,6.916-6.916V86.452l0-.021a1.716,1.716,0,0,0-.118-.587c-.019-.051-.043-.1-.067-.144a1.687,1.687,0,0,0-.081-.175l-5.865-9.217A51.774,51.774,0,0,0,92.641,18.591ZM52.873,3.458A48.5,48.5,0,0,1,70.812,6.916H34.933A48.5,48.5,0,0,1,52.873,3.458ZM16.563,12.1a1.731,1.731,0,0,1,1.729-1.729H87.453A1.731,1.731,0,0,1,89.182,12.1V65.7H16.563Zm36.31,88.181A48.183,48.183,0,0,1,31.084,95.1H74.661A48.183,48.183,0,0,1,52.873,100.284Zm44.955-8.645H7.918A3.462,3.462,0,0,1,4.46,88.181h96.826A3.462,3.462,0,0,1,97.828,91.639ZM52.873,84.723h-9.55l1.641-4.1a1.72,1.72,0,0,1,1.606-1.087H59.176a1.72,1.72,0,0,1,1.606,1.087l1.641,4.1Zm13.274,0-2.154-5.385a5.164,5.164,0,0,0-4.817-3.261H46.57a5.164,5.164,0,0,0-4.817,3.261L39.6,84.723H5.878l9.9-15.561h74.18l9.9,15.561ZM92.641,66.928V24.308A48.345,48.345,0,0,1,96.466,72.94Z" transform="translate(-0.998 0)"/><path d="M30.5,26.492a1.729,1.729,0,1,0,2.455,0A1.812,1.812,0,0,0,30.5,26.492Z" transform="translate(20.146 18.964)"/></g></g><path class="j" d="M21,19H47.6V40.279H21Z" transform="translate(-19657.531 -13661.488)"/><path class="k" d="M24,25.186V18.98a7.98,7.98,0,0,1,15.959,0v6.206Z" transform="translate(-19655.211 -13667.675)"/></g></g></svg>