<svg xmlns="http://www.w3.org/2000/svg" xmlns:xlink="http://www.w3.org/1999/xlink" viewBox="0 0 198.902 187.521"><defs><style>.a{fill:#f4e3b2;}.b{fill:#fae6ac;}.c{fill:#d25627;}.d{fill:#e57e25;}.e{fill:#f29c1f;}.f{fill:#f0c419;}.g{filter:url(#a);}</style><filter id="a" x="0" y="0" width="198.902" height="187.521" filterUnits="userSpaceOnUse"><feOffset dy="10" input="SourceAlpha"/><feGaussianBlur stdDeviation="3" result="b"/><feFlood flood-opacity="0.161"/><feComposite operator="in" in2="b"/><feComposite in="SourceGraphic"/></filter></defs><g transform="translate(-637 -1932.394)"><g class="g" transform="matrix(1, 0, 0, 1, 637, 1932.39)"><rect class="a" width="180.903" height="168.521" rx="50" transform="translate(9)"/></g><g transform="translate(651.58 1931.388)"><g transform="translate(0.421)"><circle class="a" cx="76.891" cy="76.891" r="76.891" transform="translate(7.628 8.872)"/><circle class="b" cx="62.104" cy="62.104" r="62.104" transform="translate(22.415 23.659)"/><path class="c" d="M82.147,27h8.872a2.957,2.957,0,0,1,2.957,2.957v41.4a2.957,2.957,0,0,1-2.957,2.957H25.957A2.957,2.957,0,0,1,23,71.36V62.488" transform="translate(43.775 52.848)"/><path class="d" d="M78.147,23h8.872a2.957,2.957,0,0,1,2.957,2.957v41.4a2.957,2.957,0,0,1-2.957,2.957H21.957A2.957,2.957,0,0,1,19,67.36V58.488" transform="translate(35.946 45.019)"/><path class="e" d="M74.147,19h8.872a2.957,2.957,0,0,1,2.957,2.957v41.4a2.957,2.957,0,0,1-2.957,2.957H17.957A2.957,2.957,0,0,1,15,63.36V54.488" transform="translate(28.117 37.19)"/><rect class="f" width="68.019" height="47.318" rx="1" transform="translate(34.245 44.36)"/></g></g></g></svg>