<svg xmlns="http://www.w3.org/2000/svg" xmlns:xlink="http://www.w3.org/1999/xlink" viewBox="0 0 198.903 187.521"><defs><style>.a{fill:#3e3d3d;}.b{fill:#fff;}.c{fill:#b9b9b9;}.d{fill:#adadad;}.e{fill:#f7fff9;}.f{fill:#ebfdeb;}.g{fill:#71c285;}.h{fill:#90bae1;}.i{fill:#b0d3f0;}.j{fill:#547580;}.k,.l{stroke:none;}.l{fill:#ff4848;}.m{filter:url(#a);}</style><filter id="a" x="0" y="0" width="198.903" height="187.521" filterUnits="userSpaceOnUse"><feOffset dy="10" input="SourceAlpha"/><feGaussianBlur stdDeviation="3" result="b"/><feFlood flood-opacity="0.161"/><feComposite operator="in" in2="b"/><feComposite in="SourceGraphic"/></filter></defs><g transform="translate(-2962 -2294.394)"><g class="m" transform="matrix(1, 0, 0, 1, 2962, 2294.39)"><g class="a" transform="translate(9)"><path class="k" d="M 130.9032287597656 168.0206756591797 L 50.00000762939453 168.0206756591797 C 43.31732559204102 168.0206756591797 36.83480453491211 166.7119598388672 30.73253059387207 164.1309204101562 C 24.83816719055176 161.6378021240234 19.54437255859375 158.068603515625 14.99821281433105 153.5224456787109 C 10.45205402374268 148.9763031005859 6.882872104644775 143.6825103759766 4.389758586883545 137.7881469726562 C 1.808712959289551 131.6858520507812 0.5000083446502686 125.2033538818359 0.5000083446502686 118.5206680297852 L 0.5000083446502686 50.0000114440918 C 0.5000083446502686 43.31732940673828 1.808712959289551 36.83480834960938 4.389758586883545 30.73253440856934 C 6.882872104644775 24.83817100524902 10.45205402374268 19.54437637329102 14.99821281433105 14.99821662902832 C 19.54437255859375 10.45205783843994 24.83816719055176 6.882875442504883 30.73253059387207 4.389761924743652 C 36.83480453491211 1.808716535568237 43.31732559204102 0.5000120401382446 50.00000762939453 0.5000120401382446 L 130.9032287597656 0.5000120401382446 C 137.5859222412109 0.5000120401382446 144.0684356689453 1.808716535568237 150.1707153320312 4.389761924743652 C 156.0650787353516 6.882875442504883 161.3588714599609 10.45205783843994 165.905029296875 14.99821662902832 C 170.4511871337891 19.54437637329102 174.0203704833984 24.83817100524902 176.5134887695312 30.73253440856934 C 179.0945281982422 36.83480834960938 180.4032287597656 43.31732940673828 180.4032287597656 50.0000114440918 L 180.4032287597656 118.5206680297852 C 180.4032287597656 125.2033538818359 179.0945281982422 131.6858520507812 176.5134887695312 137.7881469726562 C 174.0203704833984 143.6825103759766 170.4511871337891 148.9763031005859 165.905029296875 153.5224456787109 C 161.3588714599609 158.068603515625 156.0650787353516 161.6378021240234 150.1707153320312 164.1309204101562 C 144.0684356689453 166.7119598388672 137.5859222412109 168.0206756591797 130.9032287597656 168.0206756591797 Z"/><path class="l" d="M 50 1 C 43.38459777832031 1 36.96762084960938 2.295394897460938 30.92729187011719 4.850265502929688 C 25.092529296875 7.318145751953125 19.8521728515625 10.85137939453125 15.35176086425781 15.35176086425781 C 10.85137939453125 19.85215759277344 7.318145751953125 25.09251403808594 4.850265502929688 30.92727661132812 C 2.29541015625 36.96762084960938 1 43.38459014892578 1 50 L 1 118.5206604003906 C 1 125.1360626220703 2.29541015625 131.5530395507812 4.850265502929688 137.5933532714844 C 7.318145751953125 143.4281158447266 10.85137939453125 148.6685028076172 15.35176086425781 153.1688842773438 C 19.8521728515625 157.6692810058594 25.092529296875 161.2024993896484 30.92729187011719 163.6703948974609 C 36.96762084960938 166.2252655029297 43.38459777832031 167.5206604003906 50 167.5206604003906 L 130.9032440185547 167.5206604003906 C 137.5186462402344 167.5206604003906 143.9356231689453 166.2252655029297 149.9759521484375 163.6703948974609 C 155.8107147216797 161.2024993896484 161.0510711669922 157.6692810058594 165.5514831542969 153.1688842773438 C 170.0518646240234 148.6685028076172 173.5850982666016 143.4281158447266 176.052978515625 137.5933532714844 C 178.6078338623047 131.5530395507812 179.9032440185547 125.1360626220703 179.9032440185547 118.5206604003906 L 179.9032440185547 50 C 179.9032440185547 43.38459014892578 178.6078338623047 36.96762084960938 176.052978515625 30.92727661132812 C 173.5850982666016 25.09251403808594 170.0518646240234 19.85215759277344 165.5514831542969 15.35176086425781 C 161.0510711669922 10.85137939453125 155.8107147216797 7.318145751953125 149.9759521484375 4.850265502929688 C 143.9356231689453 2.295394897460938 137.5186462402344 1 130.9032440185547 1 L 50 1 M 50 0 L 130.9032440185547 0 C 158.5174865722656 0 180.9032440185547 22.38575744628906 180.9032440185547 50 L 180.9032440185547 118.5206604003906 C 180.9032440185547 146.1348724365234 158.5174865722656 168.5206604003906 130.9032440185547 168.5206604003906 L 50 168.5206604003906 C 22.38575744628906 168.5206604003906 0 146.1348724365234 0 118.5206604003906 L 0 50 C 0 22.38575744628906 22.38575744628906 0 50 0 Z"/></g></g><g transform="translate(3011.452 2338.374)"><g transform="translate(0)"><path class="b" d="M94.844,20.978H92.9V15.733a1.621,1.621,0,0,0-1.451-1.748h-.3V8.741a1.608,1.608,0,0,0-1.381-1.748h-.367V1.748A1.6,1.6,0,0,0,88.079,0H10.322A1.6,1.6,0,0,0,8.993,1.748V6.993H8.626A1.608,1.608,0,0,0,7.245,8.741v5.244h-.3A1.621,1.621,0,0,0,5.5,15.733v5.244H3.557A1.665,1.665,0,0,0,2,22.726V34.963H96.4V22.726A1.665,1.665,0,0,0,94.844,20.978Z" transform="translate(1.496)"/><path class="c" d="M96.4,13.748v5.244H2V13.748A1.665,1.665,0,0,1,3.557,12H94.844A1.665,1.665,0,0,1,96.4,13.748Z" transform="translate(1.496 8.978)"/><path class="d" d="M88.913,5.748v5.244H5V5.748A1.608,1.608,0,0,1,6.384,4H87.532A1.608,1.608,0,0,1,88.913,5.748Z" transform="translate(3.738 2.993)"/><path class="e" d="M101.392,17.748V70.192a1.717,1.717,0,0,1-1.678,1.748H1.678A1.717,1.717,0,0,1,0,70.192V17.748A1.717,1.717,0,0,1,1.678,16H99.713A1.717,1.717,0,0,1,101.392,17.748Z" transform="translate(0 11.97)"/><path class="f" d="M56.951,61.955H82.666a8.744,8.744,0,0,1,8.741-8.741V28.741A8.744,8.744,0,0,1,82.666,20H12.741A8.744,8.744,0,0,1,4,28.741V53.214a8.744,8.744,0,0,1,8.741,8.741Z" transform="translate(2.993 14.963)"/><circle class="g" cx="3.496" cy="3.496" r="3.496" transform="translate(76.918 52.444)"/><circle class="g" cx="3.496" cy="3.496" r="3.496" transform="translate(17.482 52.444)"/><path class="h" d="M51.466,30.244H49.718v6.993a13.992,13.992,0,0,1-8.553,12.894,3.094,3.094,0,0,0-1.936,2.836v.007a3.094,3.094,0,0,0,1.936,2.836A13.992,13.992,0,0,1,49.718,68.7V75.7h1.748V80.94H20V75.7h1.748V68.7A13.992,13.992,0,0,1,30.3,55.809a3.094,3.094,0,0,0,1.936-2.836v-.007A3.094,3.094,0,0,0,30.3,50.131a13.992,13.992,0,0,1-8.553-12.894V30.244H20V25H51.466Z" transform="translate(14.963 18.703)"/><path class="i" d="M25.276,59.237a6,6,0,0,1,3.361-7.342C33.679,49.447,33.679,47,33.679,47s6.723,0,5.042,12.237" transform="translate(18.697 35.162)"/><path class="i" d="M38.985,32s-1.748,8.741-6.993,8.741S25,32,25,32Z" transform="translate(18.703 23.94)"/><rect class="j" width="41.955" height="6.993" rx="2" transform="translate(29.718 94.399)"/><rect class="j" width="41.955" height="6.993" rx="2" transform="translate(29.718 41.955)"/></g></g></g></svg>