<svg xmlns="http://www.w3.org/2000/svg" xmlns:xlink="http://www.w3.org/1999/xlink" viewBox="0 0 198.902 187.521"><defs><style>.a{fill:url(#a);}.b{fill:#fff;}.b,.c,.d,.e,.f{fill-rule:evenodd;}.c,.d,.f{fill:none;stroke-linecap:round;stroke-width:2px;}.c{stroke:#0f81e0;}.c,.d{stroke-linejoin:round;}.d,.f{stroke:#1081e0;}.e{fill:#c6e3f8;}.g{filter:url(#b);}</style><linearGradient id="a" x1="0.677" y1="0.659" x2="0.163" y2="0.031" gradientUnits="objectBoundingBox"><stop offset="0" stop-color="#5096f8"/><stop offset="1" stop-color="#3ed2ff"/></linearGradient><filter id="b" x="0" y="0" width="198.902" height="187.521" filterUnits="userSpaceOnUse"><feOffset dy="10" input="SourceAlpha"/><feGaussianBlur stdDeviation="3" result="c"/><feFlood flood-opacity="0.161"/><feComposite operator="in" in2="c"/><feComposite in="SourceGraphic"/></filter></defs><g transform="translate(-2323 -1932)"><g class="g" transform="matrix(1, 0, 0, 1, 2323, 1932)"><rect class="a" width="180.903" height="168.521" rx="50" transform="translate(9)"/></g><g transform="translate(2370 1970.078)"><g transform="translate(0 0)"><g transform="translate(0 0)"><path class="b" d="M106.261,62.291H0V6.412A6.412,6.412,0,0,1,6.412,0H99.849a6.412,6.412,0,0,1,6.412,6.412Z" transform="translate(0 0)"/><path class="c" d="M106.261,62.291H0V6.412A6.412,6.412,0,0,1,6.412,0H99.849a6.412,6.412,0,0,1,6.412,6.412V62.291Z" transform="translate(0 0)"/><path class="b" d="M99.849,48.657H6.412A6.412,6.412,0,0,1,0,42.244V34H106.261v8.244a6.412,6.412,0,0,1-6.412,6.412" transform="translate(0 28.291)"/><path class="c" d="M99.849,48.657H6.412A6.412,6.412,0,0,1,0,42.244V34H106.261v8.244a6.412,6.412,0,0,1-6.412,6.412Z" transform="translate(0 28.291)"/><path class="d" d="M5,5H25.153" transform="translate(4.16 4.16)"/><path class="d" d="M20,5H36.489" transform="translate(16.642 4.16)"/><path class="d" d="M5,9H15.993" transform="translate(4.16 7.489)"/><path class="d" d="M15,9H31.489" transform="translate(12.481 7.489)"/><path class="d" d="M28,9h1.832" transform="translate(23.298 7.489)"/><path class="e" d="M60.97,57.328H17A7.329,7.329,0,0,1,24.328,50H53.642a7.329,7.329,0,0,1,7.328,7.328" transform="translate(14.145 41.604)"/><path class="c" d="M60.97,57.328H17A7.329,7.329,0,0,1,24.328,50H53.642a7.329,7.329,0,0,1,7.328,7.328Z" transform="translate(14.145 41.604)"/><path class="e" d="M47.649,56.657H22L25.664,42H43.985Z" transform="translate(18.306 34.948)"/><path class="c" d="M47.649,56.657H22L25.664,42H43.985Z" transform="translate(18.306 34.948)"/><path class="e" d="M26.993,21.5A5.5,5.5,0,1,1,21.5,16a5.5,5.5,0,0,1,5.5,5.5" transform="translate(13.313 13.313)"/><path class="c" d="M26.993,21.5A5.5,5.5,0,1,1,21.5,16a5.5,5.5,0,0,1,5.5,5.5Z" transform="translate(13.313 13.313)"/><path class="e" d="M46.993,16.5A5.5,5.5,0,1,1,41.5,11a5.5,5.5,0,0,1,5.5,5.5" transform="translate(29.955 9.153)"/><path class="c" d="M46.993,16.5A5.5,5.5,0,1,1,41.5,11a5.5,5.5,0,0,1,5.5,5.5Z" transform="translate(29.955 9.153)"/><path class="e" d="M56.993,26.5A5.5,5.5,0,1,1,51.5,21a5.5,5.5,0,0,1,5.5,5.5" transform="translate(38.276 17.474)"/><path class="c" d="M56.993,26.5A5.5,5.5,0,1,1,51.5,21a5.5,5.5,0,0,1,5.5,5.5Z" transform="translate(38.276 17.474)"/><path class="e" d="M33.993,28.5A5.5,5.5,0,1,1,28.5,23a5.5,5.5,0,0,1,5.5,5.5" transform="translate(19.138 19.138)"/><path class="c" d="M33.993,28.5A5.5,5.5,0,1,1,28.5,23a5.5,5.5,0,0,1,5.5,5.5Z" transform="translate(19.138 19.138)"/><path class="e" d="M19.993,28.5A5.5,5.5,0,1,1,14.5,23a5.5,5.5,0,0,1,5.5,5.5" transform="translate(7.489 19.138)"/><path class="c" d="M19.993,28.5A5.5,5.5,0,1,1,14.5,23a5.5,5.5,0,0,1,5.5,5.5Z" transform="translate(7.489 19.138)"/><path class="f" d="M18.851,20.554l-5.3,5.3" transform="translate(11.279 17.103)"/><path class="f" d="M26.851,25.851l-5.3-5.3" transform="translate(17.935 17.103)"/><path class="f" d="M43.372,15.554,28.122,30.8" transform="translate(23.4 12.943)"/><path class="f" d="M52.347,26.347,41.555,15.555" transform="translate(34.577 12.943)"/></g></g></g></g></svg>