<svg xmlns="http://www.w3.org/2000/svg" xmlns:xlink="http://www.w3.org/1999/xlink" viewBox="0 0 198.902 187.521"><defs><style>.a{fill:#b2d3ff;}.b{fill:#ffa800;}.c{fill:#fe840a;}.d{fill:#fe0a0a;}.e{fill:#fff;}.f{fill:none;stroke:#000;stroke-linecap:round;stroke-linejoin:round;stroke-width:2px;fill-rule:evenodd;}.g{filter:url(#a);}</style><filter id="a" x="0" y="0" width="198.902" height="187.521" filterUnits="userSpaceOnUse"><feOffset dy="10" input="SourceAlpha"/><feGaussianBlur stdDeviation="3" result="b"/><feFlood flood-opacity="0.161"/><feComposite operator="in" in2="b"/><feComposite in="SourceGraphic"/></filter></defs><g transform="translate(-637 -2294.394)"><g class="g" transform="matrix(1, 0, 0, 1, 637, 2294.39)"><rect class="a" width="180.903" height="168.521" rx="50" transform="translate(9)"/></g><g transform="translate(655 2293.394)"><g transform="translate(1 1)"><path class="b" d="M111.269,70.642a50.642,50.642,0,0,1-50.642,50.642c-1.333,0-2.692-.053-4-.16a50.642,50.642,0,0,1,0-100.963c1.306-.107,2.665-.16,4-.16a50.642,50.642,0,0,1,50.642,50.642Z" transform="translate(16.668 33.307)"/><path class="c" d="M46.644,0C72.4,0,93.287,22.6,93.287,50.482S72.4,100.963,46.644,100.963,0,78.362,0,50.482,20.883,0,46.644,0Z" transform="translate(26.653 53.467)"/><path class="d" d="M60.708.132Z" transform="translate(63.284 0.187)"/><path class="e" d="M40.688,20.176C39.409,20.069,38.122,20,36.815,20s-2.692.053-4,.16a48.936,48.936,0,0,0-8.51,1.445c.291.8.584,1.6.866,2.4A50.234,50.234,0,0,1,40.688,20.176Z" transform="translate(40.48 33.307)"/><path class="f" d="M15.331,42.264A50.109,50.109,0,0,0,10,64.813a50.642,50.642,0,1,0,93.687-26.653A49.73,49.73,0,0,0,89.854,23.5" transform="translate(16.653 39.136)"/><path class="f" d="M53.844,21.626a49.242,49.242,0,0,0-11.781-1.6C41.77,20,41.477,20,41.157,20A50.3,50.3,0,0,0,21.7,23.891" transform="translate(36.138 33.307)"/><path class="f" d="M29.906,20.027C29.613,20,29.32,20,29,20" transform="translate(48.295 33.307)"/><path class="f" d="M20.236,46.476V46.5A88.828,88.828,0,0,0,18.77,62.814c0,27.96,12.207,50.642,27.267,50.642S73.3,90.774,73.3,62.814a84.921,84.921,0,0,0-4.078-26.653A54.823,54.823,0,0,0,63.975,24.7" transform="translate(31.258 41.134)"/><path class="f" d="M22.61,24.187V24.16" transform="translate(37.654 40.235)"/><path class="f" d="M12.85,49H98.941" transform="translate(21.4 81.602)"/><path class="f" d="M24.07,29H80.256" transform="translate(40.085 48.295)"/><path class="f" d="M10,39H111.283" transform="translate(16.653 64.949)"/><path class="f" d="M29,20V121.283" transform="translate(48.295 33.307)"/></g></g></g></svg>