<svg xmlns="http://www.w3.org/2000/svg" xmlns:xlink="http://www.w3.org/1999/xlink" viewBox="0 0 198.903 187.521"><defs><style>.a{fill:#5a5a5a;}.b{fill:#fff;}.c{fill:#656161;}.d{fill:#76b6e0;}.e{fill:#7ca7d5;}.f{fill:#6b7884;}.g{fill:#7d5e46;}.h{filter:url(#a);}</style><filter id="a" x="0" y="0" width="198.903" height="187.521" filterUnits="userSpaceOnUse"><feOffset dy="10" input="SourceAlpha"/><feGaussianBlur stdDeviation="3" result="b"/><feFlood flood-opacity="0.161"/><feComposite operator="in" in2="b"/><feComposite in="SourceGraphic"/></filter></defs><g transform="translate(-3601 -1932)"><g class="h" transform="matrix(1, 0, 0, 1, 3601, 1932)"><rect class="a" width="180.903" height="168.521" rx="50" transform="translate(9)"/></g><g transform="translate(3641 1961.044)"><g transform="translate(0 0)"><g transform="translate(1.95 1.948)"><path class="a" d="M59.23,24h51.9a1.955,1.955,0,0,1,1.95,1.95V90.288a1.955,1.955,0,0,1-1.95,1.95H1.95A1.955,1.955,0,0,1,0,90.288V25.95A1.955,1.955,0,0,1,1.95,24Z" transform="translate(0 20.871)"/><path class="b" d="M113.079,53v9.748a1.955,1.955,0,0,1-1.95,1.95H1.95A1.955,1.955,0,0,1,0,62.748V53Z" transform="translate(0 48.411)"/><path class="c" d="M113.079,25.95V35.7H0V25.95A1.955,1.955,0,0,1,1.95,24H111.13A1.955,1.955,0,0,1,113.079,25.95Z" transform="translate(0 20.871)"/><rect class="b" width="40.943" height="17.547" rx="1" transform="translate(64.338 76.065)"/><path class="d" d="M74.877,3.315a7.675,7.675,0,0,0-10.86-.156l-5.6,5.6L20.5,46.675a13.023,13.023,0,0,0-3.8,9.241l.039.838.137,1.267a4.016,4.016,0,0,0,3.314,3.314,12.4,12.4,0,0,0,2.4.156,12.928,12.928,0,0,0,8.93-3.782l37.94-37.921,2.749-2.768,2.847-2.846A7.422,7.422,0,0,0,77.217,8.91,7.9,7.9,0,0,0,74.877,3.315Z" transform="translate(15.859 -0.985)"/><path class="e" d="M56.895,8.91a7.422,7.422,0,0,1-2.164,5.264l-2.847,2.846-2.749,2.768L38.1,8.754l5.6-5.6a7.675,7.675,0,0,1,10.86.156A7.9,7.9,0,0,1,56.895,8.91Z" transform="translate(36.181 -0.985)"/><path class="f" d="M25.152,34.328v.078c-3.2,2.846-8.715,7.194-10.665,5.245-1.833-1.833,1.891-6.8,4.718-10.06h.1l.137,1.267a4.016,4.016,0,0,0,3.314,3.314A12.4,12.4,0,0,0,25.152,34.328Z" transform="translate(13.295 26.18)"/></g><path class="b" d="M113.079,45.855H65.9L90.019,21.732l2.753,2.754L78.561,38.624a1.949,1.949,0,0,0,2.749,2.765l15.6-15.516a1.949,1.949,0,0,0,0-2.761l-4.135-4.136,1.466-1.466a9.642,9.642,0,0,0-.169-13.616,9.815,9.815,0,0,0-6.814-2.9,9.269,9.269,0,0,0-6.8,2.735L38.324,45.855H3.9a3.9,3.9,0,0,0-3.9,3.9v64.338a3.9,3.9,0,0,0,3.9,3.9h109.18a3.9,3.9,0,0,0,3.9-3.9V49.754A3.9,3.9,0,0,0,113.079,45.855ZM3.9,61.452H29.82c-2.013,2.923-2.8,5.189-2.425,6.9l-.344.349L23.6,66.4a3.866,3.866,0,0,0-4.3,0l-4.284,2.852H11.7a1.95,1.95,0,1,0,0,3.9h3.315a3.851,3.851,0,0,0,2.15-.657l4.274-2.848,3.45,2.3a3.911,3.911,0,0,0,4.918-.5l.329-.329a3.972,3.972,0,0,0,.861.1c2.42,0,5.791-1.948,10.284-5.882a15.013,15.013,0,0,0,8.976-3.884h62.826v40.942H3.9ZM76.232,13.46,84.5,21.732,59.832,46.405l-.052.052L48.134,58.1l-.052.052-.125.125A11.2,11.2,0,0,1,38.3,61.355a2.051,2.051,0,0,1-1.689-1.686,11.208,11.208,0,0,1,3.077-9.661ZM31.2,67.3a12.048,12.048,0,0,1,2.529-4.608,5.89,5.89,0,0,0,2.241,1.961A12.39,12.39,0,0,1,31.2,67.3Zm81.883-17.545v7.8H54.2l7.8-7.8h51.083ZM83.212,6.481a5.456,5.456,0,0,1,3.894-1.595H87.2A5.942,5.942,0,0,1,91.315,6.65a5.742,5.742,0,0,1,.169,8.1l-4.223,4.223L78.989,10.7ZM34.941,49.754a15.131,15.131,0,0,0-2.342,7.8H3.9v-7.8ZM3.9,114.093v-7.8h109.18v7.8Z" transform="translate(0 -0.986)"/><path class="g" d="M75.892,40H34.95A1.949,1.949,0,0,0,33,41.95V59.5a1.949,1.949,0,0,0,1.95,1.95H75.892a1.949,1.949,0,0,0,1.95-1.95V41.95A1.949,1.949,0,0,0,75.892,40Zm-1.95,17.547H36.9V43.9H73.943Z" transform="translate(31.338 36.064)"/><path class="b" d="M49.842,40H6.95a1.95,1.95,0,1,0,0,3.9H49.842a1.95,1.95,0,1,0,0-3.9Z" transform="translate(4.748 36.064)"/><path class="b" d="M49.842,49H6.95a1.95,1.95,0,1,0,0,3.9H49.842a1.95,1.95,0,1,0,0-3.9Z" transform="translate(4.748 44.61)"/></g></g></g></svg>