<svg xmlns="http://www.w3.org/2000/svg" xmlns:xlink="http://www.w3.org/1999/xlink" viewBox="0 0 198.902 187.521"><defs><style>.a{fill:url(#a);}.b{fill:#ffa800;}.c{fill:#fffdf0;}.d{fill:#de4a0a;}.e{fill:#fedd0a;}.f{fill:#f78f02;}.g{fill:#f7b449;}.h{fill:#fff;}.i,.j,.k,.l{fill:none;stroke:#000;stroke-linecap:round;stroke-linejoin:round;stroke-width:2px;}.i,.j,.k{fill-rule:evenodd;}.j{stroke-dasharray:1.949;}.k{stroke-dasharray:1.975;}.m{filter:url(#b);}</style><linearGradient id="a" x1="0.5" x2="0.5" y2="1" gradientUnits="objectBoundingBox"><stop offset="0" stop-color="#ff9d60"/><stop offset="1" stop-color="#ff7a92"/></linearGradient><filter id="b" x="0" y="0" width="198.902" height="187.521" filterUnits="userSpaceOnUse"><feOffset dy="10" input="SourceAlpha"/><feGaussianBlur stdDeviation="3" result="c"/><feFlood flood-opacity="0.161"/><feComposite operator="in" in2="c"/><feComposite in="SourceGraphic"/></filter></defs><g transform="translate(19634 13129.606)"><g transform="translate(-20815 -15424)"><g class="m" transform="matrix(1, 0, 0, 1, 1181, 2294.39)"><rect class="a" width="180.903" height="168.521" rx="50" transform="translate(9)"/></g></g><g transform="translate(-19592.814 -13084.495)"><g transform="translate(1 1)"><g transform="translate(0)"><rect class="b" width="99.003" height="86.627" rx="4" transform="translate(6.188)"/><path class="c" d="M1.621,0H87.108a1.659,1.659,0,0,1,1.621,1.7V84.932a1.659,1.659,0,0,1-1.621,1.7H1.621A1.659,1.659,0,0,1,0,84.932V1.7A1.659,1.659,0,0,1,1.621,0Z" transform="translate(10.273)"/><rect class="b" width="37.126" height="24.751" rx="3" transform="translate(0 30.938)"/><path class="d" d="M1.271,0h28.4a1.271,1.271,0,0,1,1.271,1.271V23.479a1.271,1.271,0,0,1-1.271,1.271H1.271A1.271,1.271,0,0,1,0,23.479V1.271A1.271,1.271,0,0,1,1.271,0Z" transform="translate(0 30.938)"/><circle class="e" cx="4.125" cy="4.125" r="4.125" transform="translate(20.626 39.189)"/><path class="b" d="M87.752,18.125V44.546s0,27.329-28.876,43.706c-1.073-.6-2.1-1.238-3.094-1.877C30,69.875,30,44.546,30,44.546V18.125A4.137,4.137,0,0,1,34.125,14h49.5A4.137,4.137,0,0,1,87.752,18.125Z" transform="translate(31.877 14.876)"/><path class="d" d="M81.564,18.125V44.546s0,25.328-25.782,41.829C30,69.875,30,44.546,30,44.546V18.125A4.137,4.137,0,0,1,34.125,14H77.439A4.137,4.137,0,0,1,81.564,18.125Z" transform="translate(31.877 14.876)"/><path class="f" d="M75.251,18V40.3c-.021.825-.557,20.316-20.626,33.991Q52.976,73.173,51.532,72C34.227,58.344,34,40.5,34,40.3V18Z" transform="translate(36.127 19.126)"/><path class="g" d="M69.063,20.063V40.3c-.021.784-.5,18.254-17.532,31.7C34.227,58.344,34,40.5,34,40.3V18H67A2.063,2.063,0,0,1,69.063,20.063Z" transform="translate(36.127 19.126)"/></g><g transform="translate(0)"><path class="h" d="M12.375,78.377V55.689A6.188,6.188,0,0,1,6.188,49.5V37.126a6.188,6.188,0,0,1,6.188-6.188V8.25A8.25,8.25,0,0,1,20.626,0H14.438a8.25,8.25,0,0,0-8.25,8.25V30.938A6.188,6.188,0,0,0,0,37.126V49.5a6.188,6.188,0,0,0,6.188,6.188V78.377a8.25,8.25,0,0,0,8.25,8.25h6.188A8.25,8.25,0,0,1,12.375,78.377Z" transform="translate(0)"/></g><g transform="translate(0)"><path class="h" d="M7,41H64.463v4.125H7Z" transform="translate(7.438 43.565)"/><path d="M17.313,43.063A2.063,2.063,0,0,0,15.25,41H7v4.125h8.25A2.063,2.063,0,0,0,17.313,43.063Z" transform="translate(7.438 43.565)"/><path d="M52.775,45.125V41H20.063a2.063,2.063,0,1,0,0,4.125Z" transform="translate(19.126 43.565)"/><path d="M16.063,41a2.17,2.17,0,0,0-1.464.6l-.248.309a1.562,1.562,0,0,0-.186.371,1.312,1.312,0,0,0-.124.371,3.093,3.093,0,0,0-.041.413,2.17,2.17,0,0,0,.6,1.464,2.129,2.129,0,0,0,.681.433,2.106,2.106,0,0,0,2.248-.433,2.129,2.129,0,0,0,.433-.681,2.063,2.063,0,0,0,.165-.784A2.042,2.042,0,0,0,16.063,41Z" transform="translate(14.876 43.565)"/><path class="i" d="M3,27V49.688a8.25,8.25,0,0,0,8.25,8.25" transform="translate(3.188 28.689)"/><path class="i" d="M3,30.938V8.25A8.25,8.25,0,0,1,11.25,0h82.5A8.25,8.25,0,0,1,102,8.25V28.876" transform="translate(3.188)"/><path class="i" d="M7,27v2.063" transform="translate(7.438 28.689)"/><path class="j" d="M7,31.9v8.456a4.137,4.137,0,0,0,4.125,4.125H52.481" transform="translate(7.438 33.895)"/><path class="i" d="M31,38h2.063" transform="translate(32.939 40.377)"/><path class="i" d="M7,16.063V14" transform="translate(7.438 14.876)"/><path class="k" d="M7,16.478V8.125A4.137,4.137,0,0,1,11.125,4H85.377A4.137,4.137,0,0,1,89.5,8.125V18.489" transform="translate(7.438 4.25)"/><path class="i" d="M47,13v2.063" transform="translate(49.94 13.813)"/><rect class="l" width="37.126" height="24.751" rx="3" transform="translate(0 30.938)"/><circle class="l" cx="4.125" cy="4.125" r="4.125" transform="translate(20.626 39.189)"/><path class="i" d="M83.626,14a4.125,4.125,0,0,1,4.125,4.125V44.557s0,27.31-28.876,43.7C30,71.867,30,44.557,30,44.557V18.125A4.125,4.125,0,0,1,34.125,14Z" transform="translate(31.877 14.876)"/><path class="i" d="M62.563,18a2.063,2.063,0,0,1,2.063,2.063V40.307c-.012.825-.555,20.3-20.626,33.985" transform="translate(46.752 19.126)"/><path class="i" d="M42.25,62.4A41.845,41.845,0,0,1,34,40.307V20.063A2.063,2.063,0,0,1,36.063,18H58.751" transform="translate(36.127 19.126)"/><path class="i" d="M40,37.766l3.867,3.867L60.626,24.875" transform="translate(42.502 26.431)"/></g></g></g></g></svg>