<svg xmlns="http://www.w3.org/2000/svg" xmlns:xlink="http://www.w3.org/1999/xlink" viewBox="0 0 198.902 187.521"><defs><style>.a{fill:#b9b9b9;stroke:#707070;}.b{fill:#d8d8d8;}.b,.c,.d,.e,.f,.g{stroke:#8b8b8b;stroke-linecap:round;stroke-width:2px;fill-rule:evenodd;}.b,.c{stroke-linejoin:round;}.c{fill:rgba(167,165,164,0.83);}.d{fill:#ff8900;}.e{fill:#f7f7f7;}.f{fill:#3ebcff;}.g{fill:rgba(247,247,247,0.83);}.h{stroke:none;}.i{fill:none;}.j{filter:url(#a);}</style><filter id="a" x="0" y="0" width="198.902" height="187.521" filterUnits="userSpaceOnUse"><feOffset dy="10" input="SourceAlpha"/><feGaussianBlur stdDeviation="3" result="b"/><feFlood flood-opacity="0.161"/><feComposite operator="in" in2="b"/><feComposite in="SourceGraphic"/></filter></defs><g transform="translate(-1768 -2294.394)"><g class="j" transform="matrix(1, 0, 0, 1, 1768, 2294.39)"><g class="a" transform="translate(9)"><rect class="h" width="180.903" height="168.521" rx="50"/><rect class="i" x="0.5" y="0.5" width="179.903" height="167.521" rx="49.5"/></g></g><g transform="translate(1798.924 2334.933)"><g transform="translate(1 1)"><path class="b" d="M135.113,79.2H0V8.153A8.153,8.153,0,0,1,8.153,0H126.96a8.153,8.153,0,0,1,8.153,8.153V79.2Z"/><path class="c" d="M126.96,52.636H8.153A8.153,8.153,0,0,1,0,44.483V34H135.113V44.483a8.153,8.153,0,0,1-8.153,8.153Z" transform="translate(0 45.204)"/><path class="d" d="M8,36.648H21.977V25H8Z" transform="translate(10.636 33.238)"/><path class="e" d="M17,36.648H30.977V25H17Z" transform="translate(22.602 33.238)"/><path class="d" d="M26,36.648H39.977V25H26Z" transform="translate(34.568 33.238)"/><path class="e" d="M35,36.648H48.977V25H35Z" transform="translate(46.534 33.238)"/><path class="e" d="M44,36.648H57.977V25H44Z" transform="translate(58.5 33.238)"/><path class="e" d="M8,31.648H21.977V20H8Z" transform="translate(10.636 26.591)"/><path class="e" d="M17,36.966H30.977V16H17Z" transform="translate(22.602 21.273)"/><path class="e" d="M26,44.943H39.977V10H26Z" transform="translate(34.568 13.295)"/><path class="d" d="M35,35.636H48.977V17H35Z" transform="translate(46.534 22.602)"/><path class="d" d="M44,52.92H57.977V4H44Z" transform="translate(58.5 5.318)"/><path class="f" d="M7,21.307,23.307,5" transform="translate(9.307 6.648)"/><path class="f" d="M14,5V16.648" transform="translate(18.614 6.648)"/><path class="g" d="M20.648,5H9" transform="translate(11.966 6.648)"/></g></g></g></svg>